<svg width="40" height="40" viewBox="0 0 40 40" fill="none" xmlns="http://www.w3.org/2000/svg">
<path d="M20.07 39.4136C7.04833 39.4136 0 31.2869 0 20.7952C0 9.58358 7.93667 0.586914 22.1267 0.586914C32.4833 0.586914 40 7.31691 40 16.5886C40 31.1086 22.7833 34.9419 23.6467 26.6586C22.4633 28.5052 20.5567 30.5819 16.8917 30.5819C12.6983 30.5819 10.0917 27.5119 10.0917 22.5702C10.0917 15.1636 14.96 8.90525 20.7233 8.90525C23.4883 8.90525 25.39 10.3652 26.185 12.6069L26.9583 9.88691H30.855C30.4483 11.2736 26.9867 24.0986 26.9867 24.0986C25.9067 28.5419 29.2367 28.6202 32.19 26.2602C37.7383 21.9602 38.025 10.7152 30.5267 6.02525C22.4917 1.20691 4.20167 4.18858 4.20167 20.5136C4.20167 29.8652 10.785 36.1486 20.5833 36.1486C26.31 36.1486 29.82 34.5986 32.7417 32.9019L34.7033 35.7319C31.8517 37.3419 27.2683 39.4136 20.07 39.4136ZM16.1633 15.5719C14.9717 17.8052 14.2017 20.6986 14.2017 22.9452C14.2017 28.9619 20.0717 29.0002 22.955 23.3436C24.1417 21.0202 24.9067 18.0586 24.9067 15.7952C24.9067 10.9336 19.0817 10.0719 16.1633 15.5719V15.5719Z" fill="#E7E7E7"/>
</svg>
