<svg width="50" height="50" viewBox="0 0 50 50" fill="none" xmlns="http://www.w3.org/2000/svg">
<rect width="50" height="50" fill="#01B671"/>
<path d="M15.9716 34.9549L19.1803 39.7135C18.2694 40.3482 17.4534 41.1174 16.7607 42L16.0807 38.4498H12.25C13.3054 37.1054 14.5606 35.9253 15.9716 34.9549V34.9549ZM34.0284 34.9549L30.8197 39.7135C31.7306 40.3482 32.5466 41.1174 33.2393 42L33.9193 38.4498H37.75C36.6946 37.1054 35.4394 35.9253 34.0284 34.9549V34.9549ZM25 31.5719C21.8862 31.5719 18.9707 32.4148 16.4674 33.8839L19.6847 38.6552C21.2685 37.7953 23.079 37.3122 25 37.3122C26.921 37.3122 28.7315 37.7939 30.3153 38.6552L33.5326 33.8839C31.0293 32.4148 28.1138 31.5719 25 31.5719ZM21.6836 36.2115L20.9228 35.8049L20.1635 36.2115L20.3151 35.3629L19.6946 34.7665L20.5474 34.6489L20.9228 33.874L21.2997 34.6489L22.1539 34.7665L21.5334 35.3629L21.6836 36.2115V36.2115ZM26.1447 36.0486L24.9858 35.4281L23.8242 36.0486L24.0565 34.7523L23.1059 33.8414L24.4107 33.6615L24.9858 32.4786L25.5596 33.6615L26.8629 33.8414L25.9123 34.7523L26.1447 36.0486ZM29.8039 36.2115L29.0446 35.8049L28.2852 36.2115L28.4354 35.3629L27.8149 34.7665L28.6692 34.6489L29.046 33.874L29.4214 34.6489L30.2757 34.7665L29.6552 35.3629L29.8039 36.2115ZM33.5128 21.6793C33.1076 22.5832 32.684 23.4232 32.2633 24.2052C38.022 22.2956 41.473 16.6487 42 10.8333H36.2242C36.1732 11.5162 36.1109 12.1862 36.0273 12.8237H39.8353C39.2318 15.6585 37.6423 19.5232 33.5128 21.6793ZM25 30.1552C25.8174 30.1552 26.632 30.2105 27.4381 30.3182C29.1678 25.4052 34.9167 20.4086 34.9167 8H15.0833C15.0833 20.4072 20.8421 25.4037 22.5775 30.3153C23.3765 30.2091 24.1868 30.1552 25 30.1552V30.1552ZM31.9714 10.8333C31.4501 17.2168 29.2047 21.0758 27.1944 24.5311C26.377 25.9378 25.5851 27.2978 25.0085 28.7103C24.4305 27.2964 23.6357 25.935 22.8155 24.5268C20.801 21.0744 18.5499 17.2154 18.0286 10.8333H31.9714ZM17.7367 24.2038C17.316 23.4218 16.8924 22.5817 16.4873 21.6779C12.3577 19.5232 10.7682 15.6571 10.1632 12.8223H13.9713C13.8891 12.1862 13.8268 11.5162 13.7758 10.8333H8C8.527 16.6487 11.978 22.2956 17.7367 24.2038V24.2038ZM22.3692 12.25H20.41C20.9398 16.6672 23.0407 22.1992 25 24.3582C23.4062 20.7273 22.3806 16.4263 22.3692 12.25Z" fill="#E7E7E7"/>
</svg>
