<svg width="132" height="132" viewBox="0 0 132 132" fill="none" xmlns="http://www.w3.org/2000/svg">
<rect width="132" height="132" fill="#01B671"/>
<path d="M39.4458 95.2792L48.8833 109.275C46.2042 111.142 43.8042 113.404 41.7667 116L39.7667 105.558H28.5C31.6042 101.604 35.2958 98.1333 39.4458 95.2792V95.2792ZM92.5542 95.2792L83.1167 109.275C85.7958 111.142 88.1958 113.404 90.2333 116L92.2333 105.558H103.5C100.396 101.604 96.7042 98.1333 92.5542 95.2792V95.2792ZM66 85.3292C56.8417 85.3292 48.2667 87.8083 40.9042 92.1292L50.3667 106.162C55.025 103.633 60.35 102.212 66 102.212C71.65 102.212 76.975 103.629 81.6333 106.162L91.0958 92.1292C83.7333 87.8083 75.1583 85.3292 66 85.3292ZM56.2458 98.975L54.0083 97.7792L51.775 98.975L52.2208 96.4792L50.3958 94.725L52.9042 94.3792L54.0083 92.1L55.1167 94.3792L57.6292 94.725L55.8042 96.4792L56.2458 98.975V98.975ZM69.3667 98.4958L65.9583 96.6708L62.5417 98.4958L63.225 94.6833L60.4292 92.0042L64.2667 91.475L65.9583 87.9958L67.6458 91.475L71.4792 92.0042L68.6833 94.6833L69.3667 98.4958ZM80.1292 98.975L77.8958 97.7792L75.6625 98.975L76.1042 96.4792L74.2792 94.725L76.7917 94.3792L77.9 92.1L79.0042 94.3792L81.5167 94.725L79.6917 96.4792L80.1292 98.975ZM91.0375 56.2333C89.8458 58.8917 88.6 61.3625 87.3625 63.6625C104.3 58.0458 114.45 41.4375 116 24.3333H99.0125C98.8625 26.3417 98.6792 28.3125 98.4333 30.1875H109.633C107.858 38.525 103.183 49.8917 91.0375 56.2333ZM66 81.1625C68.4042 81.1625 70.8 81.325 73.1708 81.6417C78.2583 67.1917 95.1667 52.4958 95.1667 16H36.8333C36.8333 52.4917 53.7708 67.1875 58.875 81.6333C61.225 81.3208 63.6083 81.1625 66 81.1625V81.1625ZM86.5042 24.3333C84.9708 43.1083 78.3667 54.4583 72.4542 64.6208C70.05 68.7583 67.7208 72.7583 66.025 76.9125C64.325 72.7542 61.9875 68.75 59.575 64.6083C53.65 54.4542 47.0292 43.1042 45.4958 24.3333H86.5042ZM44.6375 63.6583C43.4 61.3583 42.1542 58.8875 40.9625 56.2292C28.8167 49.8917 24.1417 38.5208 22.3625 30.1833H33.5625C33.3208 28.3125 33.1375 26.3417 32.9875 24.3333H16C17.55 41.4375 27.7 58.0458 44.6375 63.6583V63.6583ZM58.2625 28.5H52.5C54.0583 41.4917 60.2375 57.7625 66 64.1125C61.3125 53.4333 58.2958 40.7833 58.2625 28.5Z" fill="#E7E7E7"/>
</svg>
