<?xml version="1.0" encoding="utf-8"?>
<!-- Generator: Adobe Illustrator 19.2.1, SVG Export Plug-In . SVG Version: 6.00 Build 0)  -->
<svg version="1.1" id="layer" xmlns="http://www.w3.org/2000/svg" xmlns:xlink="http://www.w3.org/1999/xlink" x="0px" y="0px"
	 viewBox="0 0 652 652" style="enable-background:new 0 0 652 652;" xml:space="preserve">
<g id="Symbols">
	<g id="Logo_x2F_UEFA.com">
		<path id="Combined-Shape" d="M358,367.2v-12h9.5v12H358z M45.4,343.3c3.8,3.9,9.8,6.1,16.3,6.1c6.4,0,12.4-2.2,16.3-6.1
			c4.7-4.8,6.2-9.5,6.1-19.6l0-51.3h18.5v56.1c0,11.7-3.5,20.8-10.5,27.7c-8,7.8-17.8,11.5-30.4,11.5c-12.6,0-22.4-3.7-30.4-11.5
			c-7.1-6.9-10.5-16-10.5-27.7v-56.1h18.5l0,51.3C39.2,333.7,40.7,338.5,45.4,343.3z M183.7,289.9h-46.8v21.3h42.8v17.2h-42.8v9
			c0,9.9,3.5,12.4,12.4,12.4h34.5v17.4h-35.5c-16.5,0-29.8-7.4-29.8-27.8v-60c0-4.4,2.9-6.9,7-6.9h58.4V289.9z M215,328.4l0,38.8
			h-11.6c-4,0-6.9-2.5-6.9-7v-60c0-20.4,13.3-27.8,29.8-27.8h35.5v17.4h-34.5c-8.9,0-12.4,2.4-12.4,12.4l0,9h42.9v17.2H215z
			 M300.7,272.4c5.4,0,7.2,2.9,8.4,6.2l34.7,88.6l-19.8,0l-6.8-17.4h-22.6l6.2-17.4h9.6l-12.2-31l-23.3,65.9l-18.5,0l31.4-88.6
			c1.2-3.3,3-6.2,8.4-6.2H300.7z M428.6,319.2c-2.3-10.5-8.7-16.9-20-16.9c-16.5,0-24.7,15-24.7,30.1c0,15,8.2,30.1,24.7,30.1
			c10.7,0,19.4-8.3,20.5-20.1h8.6c-2.3,16.9-13.4,27.3-29.1,27.3c-21.6,0-33.3-17.1-33.3-37.3c0-20.2,11.8-37.3,33.3-37.3
			c15,0,26.7,8.1,28.6,24.2H428.6z M513,332.3c0,20.2-11.8,37.3-33.3,37.3c-21.6,0-33.4-17.1-33.4-37.3c0-20.2,11.8-37.3,33.4-37.3
			C501.2,295,513,312,513,332.3z M454.9,332.3c0,15,8.2,30.1,24.7,30.1c16.5,0,24.7-15,24.7-30.1c0-15-8.2-30.1-24.7-30.1
			C463.1,302.2,454.9,317.2,454.9,332.3z M523.3,297h7.9v11.9h0.4c4.5-8.5,11.9-13.9,23.1-13.9c9.3,0,17.6,4.5,20.2,13.8
			c4.2-9.3,13.1-13.8,22.4-13.8c15.4,0,23.4,8.1,23.4,24.7v47.8h-8.6v-47.4c0-11.6-4.4-17.9-16.7-17.9c-14.9,0-19.1,12.3-19.1,25.4
			v39.9h-8.6v-47.8c0.1-9.6-3.8-17.5-14.8-17.5c-14.9,0-20.9,11.2-21,26v39.4h-8.6V297z"/>
	</g>
</g>
</svg>
