<svg width="100" height="100" viewBox="0 0 100 100" fill="none" xmlns="http://www.w3.org/2000/svg">
<path d="M23.4458 79.2792L32.8833 93.275C30.2042 95.1417 27.8042 97.4042 25.7667 100L23.7667 89.5583H12.5C15.6042 85.6042 19.2958 82.1333 23.4458 79.2792V79.2792ZM76.5542 79.2792L67.1167 93.275C69.7958 95.1417 72.1958 97.4042 74.2333 100L76.2333 89.5583H87.5C84.3958 85.6042 80.7042 82.1333 76.5542 79.2792V79.2792ZM50 69.3292C40.8417 69.3292 32.2667 71.8083 24.9042 76.1292L34.3667 90.1625C39.025 87.6333 44.35 86.2125 50 86.2125C55.65 86.2125 60.975 87.6292 65.6333 90.1625L75.0958 76.1292C67.7333 71.8083 59.1583 69.3292 50 69.3292ZM40.2458 82.975L38.0083 81.7792L35.775 82.975L36.2208 80.4792L34.3958 78.725L36.9042 78.3792L38.0083 76.1L39.1167 78.3792L41.6292 78.725L39.8042 80.4792L40.2458 82.975V82.975ZM53.3667 82.4958L49.9583 80.6708L46.5417 82.4958L47.225 78.6833L44.4292 76.0042L48.2667 75.475L49.9583 71.9958L51.6458 75.475L55.4792 76.0042L52.6833 78.6833L53.3667 82.4958ZM64.1292 82.975L61.8958 81.7792L59.6625 82.975L60.1042 80.4792L58.2792 78.725L60.7917 78.3792L61.9 76.1L63.0042 78.3792L65.5167 78.725L63.6917 80.4792L64.1292 82.975ZM75.0375 40.2333C73.8458 42.8917 72.6 45.3625 71.3625 47.6625C88.3 42.0458 98.45 25.4375 100 8.33333H83.0125C82.8625 10.3417 82.6792 12.3125 82.4333 14.1875H93.6333C91.8583 22.525 87.1833 33.8917 75.0375 40.2333ZM50 65.1625C52.4042 65.1625 54.8 65.325 57.1708 65.6417C62.2583 51.1917 79.1667 36.4958 79.1667 0H20.8333C20.8333 36.4917 37.7708 51.1875 42.875 65.6333C45.225 65.3208 47.6083 65.1625 50 65.1625V65.1625ZM70.5042 8.33333C68.9708 27.1083 62.3667 38.4583 56.4542 48.6208C54.05 52.7583 51.7208 56.7583 50.025 60.9125C48.325 56.7542 45.9875 52.75 43.575 48.6083C37.65 38.4542 31.0292 27.1042 29.4958 8.33333H70.5042ZM28.6375 47.6583C27.4 45.3583 26.1542 42.8875 24.9625 40.2292C12.8167 33.8917 8.14167 22.5208 6.3625 14.1833H17.5625C17.3208 12.3125 17.1375 10.3417 16.9875 8.33333H0C1.55 25.4375 11.7 42.0458 28.6375 47.6583V47.6583ZM42.2625 12.5H36.5C38.0583 25.4917 44.2375 41.7625 50 48.1125C45.3125 37.4333 42.2958 24.7833 42.2625 12.5Z" fill="#E7E7E7"/>
</svg>
