<svg width="40" height="40" viewBox="0 0 40 40" fill="none" xmlns="http://www.w3.org/2000/svg">
<path d="M20 0C14.7533 0 10 4.255 10 9.50333C10 17.3067 17.9717 18.1317 20 30C22.0283 18.1317 30 17.3067 30 9.50333C30 4.255 25.2483 0 20 0ZM20 13.3333C18.1583 13.3333 16.6667 11.8417 16.6667 10C16.6667 8.15833 18.1583 6.66667 20 6.66667C21.8417 6.66667 23.3333 8.15833 23.3333 10C23.3333 11.8417 21.8417 13.3333 20 13.3333ZM40 40L28.8217 35.955L20 40L10.6983 35.955L0 40L6.66667 25L13.2667 22.36C13.9 23.22 14.5017 24.16 15.035 25.2417L9.16333 27.5917L6.28833 34.0583L10.7417 32.375L13.2517 27.8967L12.1933 32.97L19.175 35.9517L20 32.5833L20.775 35.9567L27.6917 32.8067L26.6617 27.7517L29.2817 32.5783L33.835 34.2267L30.9367 27.5967L24.9683 25.2383C25.5 24.155 26.1033 23.2133 26.7383 22.3533L33.44 25L40 40V40Z" fill="#E7E7E7"/>
</svg>
