<svg width="260" height="43" viewBox="0 0 260 43" fill="none" xmlns="http://www.w3.org/2000/svg">
<path d="M146.144 41.0868V35.886H150.262V41.0868H146.144ZM10.6618 30.7284C12.3087 32.4187 14.9092 33.3722 17.7263 33.3722C20.5001 33.3722 23.1005 32.4187 24.7908 30.7284C26.8278 28.6481 27.4779 26.6111 27.4346 22.2337V0H35.4526V24.314C35.4526 29.3849 33.9357 33.3289 30.9018 36.3194C27.4346 39.6999 23.1872 41.3035 17.7263 41.3035C12.2654 41.3035 8.018 39.6999 4.55076 36.3194C1.47358 33.3289 0 29.3849 0 24.314V0H8.018V22.2337C7.97466 26.5678 8.62477 28.6481 10.6618 30.7284ZM70.6018 7.5846H50.3184V16.8161H68.8681V24.2707H50.3184V28.1714C50.3184 32.4621 51.8353 33.5456 55.6926 33.5456H70.6451V41.0868H55.2592C48.108 41.0868 42.3437 37.8796 42.3437 29.0382V3.03384C42.3437 1.12685 43.6006 0.0433432 45.3776 0.0433432H70.6884V7.5846H70.6018ZM84.1674 24.2707V41.0868H79.1398C77.4062 41.0868 76.1494 40.0033 76.1494 38.053V12.0487C76.1494 3.20721 81.9137 0 89.0648 0H104.451V7.54125H89.4982C85.6409 7.54125 84.124 8.58144 84.124 12.9155V16.8161H102.717V24.2707H84.1674ZM121.31 0C123.651 0 124.431 1.25688 124.951 2.68712L139.99 41.0868H131.409L128.461 33.5456H118.666L121.354 26.0043H125.514L120.227 12.5688L110.128 41.1302H102.11L115.719 2.73046C116.239 1.30022 117.02 0.0433432 119.36 0.0433432H121.31V0ZM176.743 20.2834C175.746 15.7326 172.972 12.9588 168.075 12.9588C160.923 12.9588 157.37 19.4599 157.37 26.0043C157.37 32.5054 160.923 39.0498 168.075 39.0498C172.712 39.0498 176.483 35.4526 176.959 30.3384H180.687C179.69 37.6629 174.879 42.1704 168.075 42.1704C158.713 42.1704 153.642 34.7591 153.642 26.0043C153.642 17.2495 158.756 9.83831 168.075 9.83831C174.576 9.83831 179.647 13.3489 180.47 20.3267H176.743V20.2834ZM213.322 25.961C213.322 34.7158 208.208 42.127 198.89 42.127C189.528 42.127 184.414 34.7158 184.414 25.961C184.414 17.2062 189.528 9.79497 198.89 9.79497C208.208 9.79497 213.322 17.1629 213.322 25.961ZM188.141 25.961C188.141 32.4621 191.695 39.0065 198.846 39.0065C205.998 39.0065 209.552 32.5054 209.552 25.961C209.552 19.4599 205.998 12.9155 198.846 12.9155C191.695 12.9155 188.141 19.4166 188.141 25.961ZM217.786 10.6618H221.21V15.8193H221.384C223.334 12.1354 226.541 9.79497 231.395 9.79497C235.426 9.79497 239.023 11.7453 240.15 15.776C241.97 11.7453 245.828 9.79497 249.858 9.79497C256.533 9.79497 260 13.3056 260 20.5001V41.2169H256.273V20.6734C256.273 15.6459 254.366 12.9155 249.035 12.9155C242.577 12.9155 240.757 18.2464 240.757 23.924V41.2169H237.03V20.5001C237.073 16.3394 235.383 12.9155 230.615 12.9155C224.157 12.9155 221.557 17.7696 221.514 24.184V41.2602H217.786V10.6618Z" fill="black"/>
</svg>
