<svg width="40" height="40" viewBox="0 0 40 40" fill="none" xmlns="http://www.w3.org/2000/svg">
<path d="M31.6667 3.33333C31.6667 1.49333 30.1734 0 28.3334 0H11.6667C9.82671 0 8.33337 1.49333 8.33337 3.33333V36.6667C8.33337 38.5067 9.82671 40 11.6667 40H28.3334C30.1734 40 31.6667 38.5067 31.6667 36.6667V3.33333ZM17.5 3.33333H22.5C22.96 3.33333 23.3334 3.70667 23.3334 4.16667C23.3334 4.62667 22.96 5 22.5 5H17.5C17.04 5 16.6667 4.62667 16.6667 4.16667C16.6667 3.70667 17.04 3.33333 17.5 3.33333ZM20 36.6667C19.0784 36.6667 18.3334 35.92 18.3334 35C18.3334 34.08 19.0784 33.3333 20 33.3333C20.92 33.3333 21.665 34.08 21.665 35C21.665 35.92 20.92 36.6667 20 36.6667ZM28.3334 31.6667H11.6667V8.29333H28.3334V31.6667Z" fill="#E7E7E7"/>
</svg>
