<svg width="40" height="40" viewBox="0 0 40 40" fill="none" xmlns="http://www.w3.org/2000/svg">
<path d="M20 3.33333C29.19 3.33333 36.6667 10.81 36.6667 20C36.6667 29.19 29.19 36.6667 20 36.6667C10.81 36.6667 3.33333 29.19 3.33333 20C3.33333 10.81 10.81 3.33333 20 3.33333ZM20 0C8.955 0 0 8.955 0 20C0 31.045 8.955 40 20 40C31.045 40 40 31.045 40 20C40 8.955 31.045 0 20 0ZM30.8333 14.63C30.0983 14.9567 29.3067 15.1767 28.4767 15.2767C29.325 14.7683 29.9733 13.965 30.2817 13.0067C29.4883 13.4767 28.61 13.8183 27.675 14.0017C26.9283 13.2033 25.86 12.705 24.6817 12.705C22.0317 12.705 20.085 15.1767 20.6833 17.7433C17.275 17.5717 14.25 15.9383 12.2267 13.4567C11.1517 15.3 11.67 17.7133 13.4967 18.935C12.825 18.9133 12.1933 18.7283 11.64 18.4217C11.595 20.3217 12.9583 22.1 14.9317 22.4967C14.355 22.6533 13.7217 22.69 13.0783 22.5667C13.6 24.1967 15.1183 25.3817 16.9117 25.415C15.1833 26.7683 13.0117 27.3733 10.8333 27.1167C12.65 28.2817 14.805 28.96 17.1217 28.96C24.7417 28.96 29.045 22.525 28.785 16.7533C29.5883 16.1767 30.2833 15.4533 30.8333 14.63V14.63Z" fill="#E7E7E7"/>
</svg>
