<svg width="40" height="40" viewBox="0 0 40 40" fill="none" xmlns="http://www.w3.org/2000/svg">
<path d="M20 3.33333C29.19 3.33333 36.6667 10.81 36.6667 20C36.6667 29.19 29.19 36.6667 20 36.6667C10.81 36.6667 3.33333 29.19 3.33333 20C3.33333 10.81 10.81 3.33333 20 3.33333ZM20 0C8.955 0 0 8.955 0 20C0 31.045 8.955 40 20 40C31.045 40 40 31.045 40 20C40 8.955 31.045 0 20 0ZM16.6667 16.6667H13.3333V20H16.6667V30H21.6667V20H24.7L25 16.6667H21.6667V15.2783C21.6667 14.4817 21.8267 14.1667 22.5967 14.1667H25V10H20.9933C17.9967 10 16.6667 11.32 16.6667 13.8467V16.6667Z" fill="#E7E7E7"/>
</svg>
