<svg width="40" height="40" viewBox="0 0 40 40" fill="none" xmlns="http://www.w3.org/2000/svg">
<path d="M20 3.33333C29.19 3.33333 36.6667 10.81 36.6667 20C36.6667 29.19 29.19 36.6667 20 36.6667C10.81 36.6667 3.33333 29.19 3.33333 20C3.33333 10.81 10.81 3.33333 20 3.33333ZM20 0C8.955 0 0 8.955 0 20C0 31.045 8.955 40 20 40C31.045 40 40 31.045 40 20C40 8.955 31.045 0 20 0ZM20 11.8033C22.67 11.8033 22.9867 11.8133 24.0417 11.8617C26.7533 11.985 28.0167 13.27 28.1417 15.96C28.1883 17.015 28.1983 17.33 28.1983 20C28.1983 22.67 28.1883 22.9867 28.1417 24.04C28.0167 26.7283 26.755 28.0167 24.0417 28.14C22.9867 28.1867 22.6717 28.1983 20 28.1983C17.33 28.1983 17.0133 28.1883 15.96 28.14C13.2433 28.015 11.985 26.725 11.86 24.04C11.8133 22.9867 11.8017 22.67 11.8017 20C11.8017 17.33 11.8133 17.0133 11.86 15.96C11.9833 13.2683 13.2467 11.9833 15.96 11.86C17.0133 11.8117 17.33 11.8033 20 11.8033V11.8033ZM20 10C17.2833 10 16.945 10.0117 15.8767 10.0617C12.2433 10.2283 10.2267 12.2433 10.06 15.8767C10.0117 16.945 10 17.285 10 20C10 22.7167 10.0117 23.0567 10.06 24.1233C10.2267 27.755 12.2433 29.7733 15.8767 29.94C16.945 29.9883 17.2833 30 20 30C22.7167 30 23.0567 29.9883 24.125 29.94C27.7517 29.7733 29.7767 27.7583 29.94 24.1233C29.9883 23.0567 30 22.7167 30 20C30 17.285 29.9883 16.945 29.94 15.8767C29.7767 12.2483 27.7583 10.2267 24.125 10.0617C23.0567 10.0117 22.7167 10 20 10V10ZM20 14.865C17.165 14.865 14.865 17.1633 14.865 20C14.865 22.8367 17.165 25.135 20 25.135C22.835 25.135 25.135 22.8367 25.135 20C25.135 17.165 22.835 14.865 20 14.865ZM20 23.3333C18.1583 23.3333 16.6667 21.8417 16.6667 20C16.6667 18.16 18.1583 16.6667 20 16.6667C21.84 16.6667 23.335 18.1583 23.335 20C23.335 21.8417 21.84 23.3333 20 23.3333ZM25.3367 13.4633C24.675 13.4633 24.1367 14 24.1367 14.6633C24.1367 15.325 24.6733 15.8633 25.3367 15.8633C26 15.8633 26.5383 15.3267 26.5383 14.6633C26.5383 14 26.0017 13.4633 25.3367 13.4633Z" fill="#E7E7E7"/>
</svg>
